<svg width="269" height="76" viewBox="0 0 269 76" fill="none" xmlns="http://www.w3.org/2000/svg">
<path d="M5.70637 61.5414V58.6414L11.372 52.8H19.9316V61.5414H5.70637ZM5.70637 76V67.3414H19.9316V76H25.5972V47H8.5188L0 55.7414V76H5.70637Z" fill="#F1F1F1"/>
<path d="M44.1336 76V52.8H54.0383V47H28.4411V52.8H38.4273V76H44.1336Z" fill="#F1F1F1"/>
<path d="M62.189 76V58.6L67.8546 52.8H76.4142V76H82.0798V47H65.0014L56.4826 55.7V76H62.189Z" fill="#F1F1F1"/>
<path d="M91.4453 61.5414V58.6414L97.1109 52.8H105.67V61.5414H91.4453ZM91.4453 76V67.3414H105.67V76H111.336V47H94.2577L85.7389 55.7414V76H91.4453Z" fill="#F1F1F1"/>
<path d="M121.109 76V64.4414H135.334V76H141V47H135.334V58.6414H121.109V47H115.403V76H121.109Z" fill="#F1F1F1"/>
<path d="M195.672 76V52.8H214.067V47H190V76H195.672Z" fill="#F1F1F1"/>
<path d="M220.551 61.5414V58.6414L226.183 52.8H234.691V61.5414H220.551ZM220.551 76V67.3414H234.691V76H240.323V47H223.346L214.878 55.7414V76H220.551Z" fill="#F1F1F1"/>
<path d="M266.204 76L269 73.1414V64.4414L266.204 61.5414L269 58.6414V49.9414L266.204 47H246.351L243.555 49.9414V55.7H249.228V52.8H263.368V58.6414H254.86V64.4414H263.368V70.2H249.228V67.3414H243.555V73.1414L246.351 76H266.204Z" fill="#F1F1F1"/>
<path d="M169.457 76V44.8H183V37H148V44.8H161.654V76H169.457Z" fill="#2194FF"/>
<path fill-rule="evenodd" clip-rule="evenodd" d="M168.75 6.42341C167.613 7.35991 167.311 9.0497 167.842 11.4928C167.717 10.0654 168.322 8.92521 169.657 8.07231C170.545 7.27188 170.848 5.73951 170.566 3.47519C170.329 4.82792 169.723 5.81287 168.75 6.43009V6.42341ZM161.984 28.4645C160.819 27.2743 160.149 25.712 160.102 24.0756C160.055 22.4393 160.634 20.8436 161.73 19.5931C162.811 18.4369 162.996 17.1714 162.283 15.7964C163.347 16.3647 163.865 17.7704 163.836 20.0133C165.578 16.5377 165.508 13.6326 163.625 11.298C164.357 11.4847 165.075 11.7201 165.774 12.0024C165.547 10.7288 165.08 9.64691 164.373 8.75666C162.969 6.10724 163.055 3.18837 164.629 0C163.957 2.06599 164.297 4.02705 165.65 5.88315C166.967 7.76593 167.278 9.92662 166.583 12.3653C170.788 14.4312 172.049 18.1252 170.364 23.4472C171.711 22.5578 172.206 20.9837 171.848 18.7247C173.66 22.0233 173.806 24.7167 172.285 26.805C173.43 25.4698 174.072 23.7999 174.106 22.0678C174.159 19.7981 173.695 17.9923 172.714 16.6502C171.35 15.0494 170.537 13.7086 170.274 12.6281C169.678 8.66328 170.624 5.82665 173.112 4.11818C170.899 6.6084 171.037 9.93284 173.527 14.0915C173.118 11.7569 173.71 10.3259 175.303 9.79855C173.699 10.4327 173.854 13.5783 175.768 19.2356C176.295 21.5597 175.917 23.9895 174.707 26.0624C173.496 28.1354 171.538 29.7067 169.204 30.4773C166.87 31.2479 164.324 31.164 162.05 30.2416C159.777 29.3192 157.934 27.6227 156.873 25.4749C155.385 22.0687 155.8 17.9642 158.118 13.1617C159.658 10.6403 160.452 7.6761 160.501 4.26894C160.235 2.61918 159.674 1.29491 158.818 0.296154C161.487 2.53557 162.914 4.98623 163.098 7.64809C163.288 10.0627 162.655 12.2061 161.197 14.0782C159.217 16.732 158.252 19.7968 158.303 23.2724C158.502 24.3385 158.933 25.3518 159.567 26.2456C160.202 27.1394 161.025 27.8934 161.984 28.4579V28.4645ZM168.456 29.2649C170.385 27.6587 170.509 25.6381 168.828 23.203C167.453 21.3007 166.951 19.5616 167.325 17.9856C164.879 19.257 164.941 23.1203 165.611 26.202C164.903 25.679 163.626 23.1083 163.674 21.8637C161.73 24.8368 161.883 27.3306 164.134 29.345C165.554 29.7007 167.047 29.673 168.452 29.2649H168.456Z" fill="#2194FF"/>
</svg>
